inDegrees=no
num_controls=7
num_derivatives=13
num_iterations=129
num_multipliers=7
num_parameters=0
num_slacks=7
num_states=26
objective=0.446330
objective_accelerations=0.052234
objective_balance=0.007392
objective_effort=0.037593
objective_height=0.344151
objective_ligament=0.004960
solver_duration=1946.251559
status=Solve_Succeeded
success=true
DataType=double
version=3
OpenSimVersion=4.5
endheader
time	/jointset/ground_pelvis/pelvis_tilt/value	/jointset/ground_pelvis/pelvis_tx/value	/jointset/ground_pelvis/pelvis_ty/value	/jointset/hip_l/hip_flexion_l/value	/jointset/hip_l/hip_adduction_l/value	/jointset/hip_l/hip_rotation_l/value	/jointset/back/lumbar_extension/value	/jointset/patellofemoral_l/patellar_flexion_l/value	/jointset/knee_l/knee_flexion_l/value	/jointset/knee_l/knee_adduction_l/value	/jointset/knee_l/knee_rotation_l/value	/jointset/ankle_l/ankle_angle_l/value	/jointset/subtalar_l/subtalar_angle_l/value	/jointset/ground_pelvis/pelvis_tilt/speed	/jointset/ground_pelvis/pelvis_tx/speed	/jointset/ground_pelvis/pelvis_ty/speed	/jointset/hip_l/hip_flexion_l/speed	/jointset/hip_l/hip_adduction_l/speed	/jointset/hip_l/hip_rotation_l/speed	/jointset/back/lumbar_extension/speed	/jointset/patellofemoral_l/patellar_flexion_l/speed	/jointset/knee_l/knee_flexion_l/speed	/jointset/knee_l/knee_adduction_l/speed	/jointset/knee_l/knee_rotation_l/speed	/jointset/ankle_l/ankle_angle_l/speed	/jointset/subtalar_l/subtalar_angle_l/speed	/forceset/tau_hip_flexion_l	/forceset/tau_hip_adduction_l	/forceset/tau_hip_rotation_l	/forceset/tau_knee_flexion_l	/forceset/tau_ankle_angle_l	/forceset/tau_subtalar_angle_l	/forceset/tau_lumbar_extension	lambda_cid13_p0	lambda_cid13_p1	lambda_cid13_p2	lambda_cid13_p3	lambda_cid13_p4	lambda_cid13_p5	lambda_cid14_p0	/jointset/ground_pelvis/pelvis_tilt/accel	/jointset/ground_pelvis/pelvis_tx/accel	/jointset/ground_pelvis/pelvis_ty/accel	/jointset/hip_l/hip_flexion_l/accel	/jointset/hip_l/hip_adduction_l/accel	/jointset/hip_l/hip_rotation_l/accel	/jointset/back/lumbar_extension/accel	/jointset/patellofemoral_l/patellar_flexion_l/accel	/jointset/knee_l/knee_flexion_l/accel	/jointset/knee_l/knee_adduction_l/accel	/jointset/knee_l/knee_rotation_l/accel	/jointset/ankle_l/ankle_angle_l/accel	/jointset/subtalar_l/subtalar_angle_l/accel	gamma_cid13_p0	gamma_cid13_p1	gamma_cid13_p2	gamma_cid13_p3	gamma_cid13_p4	gamma_cid13_p5	gamma_cid14_p0
0.5	-0.449362665195831	-0.07616299211910499	0.7555465855262393	1.29537717700148	-0.309636733454858	-0.03319390881642482	-0.333792594042127	0.7247371558874558	0.7247371558876972	-0.1724728994801538	0.1738086973430418	0.04729138370179953	-0.04732848828558064	-0.7435795185740665	-0.2680238506445494	-0.5287345122052212	2.457459611197	-0.02400588047648963	0.6506625281896836	-0.6165405421456758	1.872939891115867	1.872939891115897	-0.007881817863155505	0.005152020722493599	0.2602693149749635	0.005188484988065161	-0.2477681209980771	0.02290482207018577	-0.02213512962616415	-0.2098538561574822	0.1441210561749293	0.03567378438943052	0.2226681239661394	7.423763964659212	-19.33886172923949	5.588743100830726	-5.915284377542182	-606.6295940848587	-52.90080230424297	-26.19796988608717	0.674271291445257	0.7357896244993324	-0.3489181371971277	-1.57523519417362	0.651488419020947	-0.3113601145717884	1.841605778596824	-1.16270633392077	-1.162706333920758	0.04086139878368	-0.02167396828935119	-0.2104162162682234	0.6259192956173425	-3.583178307808075e-07	-7.17326593292751e-07	1.794511787757725e-06	1.498235786237083e-07	-4.32421846828141e-07	1.133490210053163e-07	-3.649520186147417e-07
0.51	-0.4567631452443004	-0.07880614986537247	0.7502429267176415	1.319868681298133	-0.309845784054792	-0.02670258384782466	-0.3398660239674464	0.7434053208477628	0.7434053208479605	-0.1725529410505287	0.1738593510327298	0.04988247738135879	-0.04724703307038992	-0.7364217765816348	-0.2605868583463001	-0.5318875718070654	2.440520560090602	-0.01782238451156948	0.6475276132083339	-0.5980859281761585	1.860436131127907	1.860436131127983	-0.008129758501540123	0.004975039553569618	0.2578922209785158	0.01108285026860644	-0.2559687206976941	0.02326978877965495	-0.02222009760729041	-0.211500643530802	0.1441553660538563	0.03606226267479477	0.229021089373331	7.169294302043074	-19.35281376476746	5.465082591229098	-5.878779236754987	-611.444143630568	-52.51421683701364	-25.09135260997918	0.750691773808812	0.7508081051421031	-0.2821301075744892	-1.801393814045277	0.5989138850618481	-0.3260996415579864	1.85631641744947	-1.332686378611066	-1.332686378604322	-0.05815587714597405	-0.01663078000359836	-0.2599348954744191	0.568148467152006	-3.253524492973479e-07	-6.636816924851909e-07	1.65597645153009e-06	1.32617602341019e-07	-3.904189167690583e-07	1.414684374001412e-07	-3.385483854071353e-07
0.52	-0.4640892146487118	-0.08137430687412671	0.7449110112658458	1.344181164334689	-0.3099935729551087	-0.02024491651936723	-0.3457531223108065	0.7619407530987162	0.7619407530988682	-0.1726355688436899	0.1739080507929618	0.05244808434012561	-0.04710724353781793	-0.7286973897625338	-0.2530237031419015	-0.5343858408447624	2.421655359177305	-0.01175354055327775	0.643931000161329	-0.5792742257538264	1.846393349244847	1.846393349244968	-0.008399062419780199	0.004761234832258005	0.2551719708164138	0.01685534846432811	-0.2641693203973079	0.02363475548912542	-0.02230506558845533	-0.2131474309041154	0.1441896759327846	0.03645074096016062	0.2353740547805254	6.91067452969469	-19.36947969769045	5.345785632623494	-5.858498902669657	-616.3427349074254	-52.20592386473371	-23.98282048077936	0.7876002567791184	0.7610222057292042	-0.2179600243676915	-1.960465155553651	0.6285580176952643	-0.4036997277028292	1.913023469159801	-1.470510712940921	-1.470510712940941	0.03658874281259216	-0.02903867876688006	-0.2790474493991046	0.6015458786534206	-2.967934693029059e-07	-6.135911429624639e-07	1.541998604110422e-06	1.173659183611421e-07	-3.519483215370153e-07	1.666036692528555e-07	-3.161662596480809e-07
0.53	-0.4713353283546395	-0.08386629408116215	0.739557390266842	1.368295707436039	-0.3100811451322358	-0.01382568015362511	-0.3514503850664968	0.7803283519397306	0.7803283519398707	-0.1727205784494009	0.1739545563064337	0.05498489609580713	-0.0469102194397	-0.720436504408511	-0.2453613197405922	-0.536226879956525	2.400947058323772	-0.005786165888873824	0.6398345454866321	-0.5601323605388739	1.830881615089275	1.830881615089285	-0.0086035221868161	0.004545034578499358	0.2521355521841132	0.02252235009906953	-0.2722574532498561	0.02381451958170668	-0.02235197330617327	-0.2147518889883736	0.1440810999072633	0.03671285052847218	0.2415746622789089	6.605062066879735	-19.32303358534765	5.216423695298371	-5.737041288069313	-621.169487293108	-51.81327209552681	-22.87324363197905	0.8586244302710585	0.7707310569772338	-0.1505203529742411	-2.171985912658323	0.5769076507832095	-0.4251495543303631	1.921662774478186	-1.62816446519061	-1.62816446520735	-0.04910754710876596	-0.01745719724196137	-0.3241602618284505	0.5451291595215169	-2.709592519406586e-07	-5.582978090114791e-07	1.440401051618993e-06	1.051391200099181e-07	-3.167305625573918e-07	1.892742522432297e-07	-2.948397202067413e-07
0.54	-0.4784961748559148	-0.08628128052425554	0.7341886899770418	1.392193972856374	-0.3101098274707236	-0.007449914578029132	-0.3569548502246743	0.7985535014995255	0.7985535014996507	-0.1728076614949142	0.1739989905176509	0.05748969942682914	-0.04665735495450729	-0.7116439488321981	-0.2376235503534908	-0.5374016990040293	2.37839982297403	2.442717434174898e-05	0.6352368421328468	-0.540714706251309	1.813903493000692	1.81390349300059	-0.008813750379734189	0.004346974382275913	0.2487702858844965	0.02802342587929216	-0.2803455861024055	0.02399428367428147	-0.02239888102390833	-0.21635634707263	0.1439725238817405	0.03697496009677676	0.2477752697772931	6.293685984774064	-19.2785759502839	5.090803606555154	-5.622278667036257	-626.0999984676764	-51.49303501002717	-21.76391176828529	0.893934301237163	0.7760994028876196	-0.08471601151602512	-2.328252054795312	0.5972016974575971	-0.5039494635204754	1.968181283682312	-1.763788299543332	-1.76378829954333	0.03543505763615964	-0.02541066725984295	-0.344816982862359	0.5683607077496625	-2.481396655757331e-07	-4.972482029271025e-07	1.352500846707744e-06	9.625900363082061e-08	-2.851116862400196e-07	2.092179896837808e-07	-2.746810634998945e-07
